<svg xmlns="http://www.w3.org/2000/svg" xmlns:xlink="http://www.w3.org/1999/xlink" width="32" height="32" class="icon" p-id="8745" t="1684742765171" version="1.1" viewBox="0 0 1024 1024"><path fill="#F33" d="M0 511.19a512 511.19 0 1 0 1024 0 512 511.19 0 1 0-1024 0z" p-id="8746"/><path fill="#FFF" d="M512.768 460.245l129.28-129.28a36.65 36.65 0 1 1 51.797 51.798l-129.28 129.28 129.579 129.536a36.565 36.565 0 0 1-51.755 51.712L512.853 563.755l-129.28 129.28a36.65 36.65 0 0 1-51.754-51.798l129.28-129.28L331.52 382.421a36.565 36.565 0 0 1 51.712-51.754l129.536 129.536z" p-id="8747"/></svg>